<svg width="248" height="209" viewBox="0 0 248 209" fill="none" xmlns="http://www.w3.org/2000/svg">
<rect width="165" height="139" fill="#2A63BA"/>
<rect x="83" y="70" width="165" height="139" fill="#ED2A2A"/>
<rect x="14" y="28" width="214" height="149" fill="black"/>
<path d="M95.4375 52.625V155H81.8672V52.625H95.4375ZM150 78.9219V88.9062H108.867V78.9219H150ZM122.789 60.4297H135.797V136.156C135.797 138.734 136.195 140.68 136.992 141.992C137.789 143.305 138.82 144.172 140.086 144.594C141.352 145.016 142.711 145.227 144.164 145.227C145.242 145.227 146.367 145.133 147.539 144.945C148.758 144.711 149.672 144.523 150.281 144.383L150.352 155C149.32 155.328 147.961 155.633 146.273 155.914C144.633 156.242 142.641 156.406 140.297 156.406C137.109 156.406 134.18 155.773 131.508 154.508C128.836 153.242 126.703 151.133 125.109 148.18C123.562 145.18 122.789 141.148 122.789 136.086V60.4297Z" fill="white"/>
</svg>
