<svg width="1335" height="1335" viewBox="0 0 1335 1335" fill="none" xmlns="http://www.w3.org/2000/svg">
<rect width="1335" height="1335" fill="#785D5D"/>
<ellipse rx="148.577" ry="299.6" transform="matrix(0.939478 0.342608 -0.341433 0.939906 241.878 386.5)" fill="#C4C4C4"/>
<ellipse rx="148.577" ry="299.6" transform="matrix(0.939478 -0.342608 0.341433 0.939906 1093.12 386.5)" fill="#C4C4C4"/>
<ellipse cx="667.692" cy="272.487" rx="462.633" ry="212.474" fill="#C4C4C4"/>
<path d="M411.118 135.181L444.903 194.564H377.333L411.118 135.181Z" fill="black"/>
<path d="M411.118 332.622L377.333 273.239H444.903L411.118 332.622Z" fill="black"/>
<path d="M315.09 233.4L374.357 199.55V267.251L315.09 233.4Z" fill="black"/>
<path d="M506.145 233.4L446.878 267.251V199.55L506.145 233.4Z" fill="black"/>
<path d="M712.204 60.0134H653.688L624.679 61.5168L595.671 63.5213L539.155 69.5347V207.342L768.221 211.852V63.5213L712.204 60.0134Z" fill="black"/>
<path d="M712.204 60.0134H653.688L624.679 61.5168L595.671 63.5213L539.155 69.5347V207.342L768.221 211.852V63.5213L712.204 60.0134Z" fill="black" fill-opacity="0.2"/>
<path d="M712.204 60.0134H653.688L624.679 61.5168L595.671 63.5213L539.155 69.5347V207.342L768.221 211.852V63.5213L712.204 60.0134Z" stroke="black" stroke-width="3"/>
<ellipse cx="872.751" cy="166.752" rx="27.5079" ry="27.5615" fill="black"/>
<ellipse cx="927.766" cy="221.874" rx="27.5079" ry="27.5615" fill="black"/>
<ellipse cx="872.751" cy="272.989" rx="27.5079" ry="27.5615" fill="black"/>
<ellipse cx="823.736" cy="225.884" rx="27.5079" ry="27.5615" fill="black"/>
<path d="M215.547 859.812H233.809L280.391 975.73L326.875 859.812H345.234L287.422 1002H273.164L215.547 859.812ZM209.59 859.812H225.703L228.34 946.531V1002H209.59V859.812ZM334.98 859.812H351.094V1002H332.344V946.531L334.98 859.812ZM411.152 991.062L440.547 896.336H459.883L417.5 1018.31C416.523 1020.91 415.221 1023.71 413.594 1026.71C412.031 1029.77 410.013 1032.66 407.539 1035.4C405.065 1038.13 402.07 1040.35 398.555 1042.04C395.104 1043.8 390.97 1044.68 386.152 1044.68C384.72 1044.68 382.897 1044.48 380.684 1044.09C378.47 1043.7 376.908 1043.37 375.996 1043.11L375.898 1028.46C376.419 1028.53 377.233 1028.6 378.34 1028.66C379.512 1028.79 380.326 1028.86 380.781 1028.86C384.883 1028.86 388.366 1028.3 391.23 1027.2C394.095 1026.15 396.504 1024.36 398.457 1021.82C400.475 1019.35 402.201 1015.93 403.633 1011.57L411.152 991.062ZM389.57 896.336L417.012 978.367L421.699 997.41L408.711 1004.05L369.844 896.336H389.57ZM633.613 931.199V983.25C631.855 985.854 629.056 988.784 625.215 992.039C621.374 995.229 616.068 998.029 609.297 1000.44C602.591 1002.78 593.932 1003.95 583.32 1003.95C574.661 1003.95 566.686 1002.46 559.395 999.461C552.168 996.401 545.885 991.974 540.547 986.18C535.273 980.32 531.172 973.224 528.242 964.891C525.378 956.492 523.945 946.987 523.945 936.375V925.34C523.945 914.728 525.182 905.255 527.656 896.922C530.195 888.589 533.906 881.525 538.789 875.73C543.672 869.871 549.661 865.444 556.758 862.449C563.854 859.389 571.992 857.859 581.172 857.859C592.044 857.859 601.126 859.747 608.418 863.523C615.775 867.234 621.504 872.378 625.605 878.953C629.772 885.529 632.441 893.016 633.613 901.414H614.766C613.919 896.271 612.227 891.583 609.688 887.352C607.214 883.12 603.665 879.734 599.043 877.195C594.421 874.591 588.464 873.289 581.172 873.289C574.596 873.289 568.9 874.493 564.082 876.902C559.264 879.311 555.293 882.762 552.168 887.254C549.043 891.746 546.699 897.182 545.137 903.562C543.639 909.943 542.891 917.137 542.891 925.145V936.375C542.891 944.578 543.835 951.902 545.723 958.348C547.676 964.793 550.443 970.294 554.023 974.852C557.604 979.344 561.868 982.762 566.816 985.105C571.829 987.449 577.363 988.621 583.418 988.621C590.124 988.621 595.56 988.068 599.727 986.961C603.893 985.789 607.148 984.422 609.492 982.859C611.836 981.232 613.626 979.702 614.863 978.27V946.434H581.953V931.199H633.613ZM724.434 983.934V929.539C724.434 925.372 723.587 921.759 721.895 918.699C720.267 915.574 717.793 913.165 714.473 911.473C711.152 909.78 707.051 908.934 702.168 908.934C697.611 908.934 693.607 909.715 690.156 911.277C686.771 912.84 684.102 914.891 682.148 917.43C680.26 919.969 679.316 922.703 679.316 925.633H661.25C661.25 921.857 662.227 918.113 664.18 914.402C666.133 910.691 668.932 907.339 672.578 904.344C676.289 901.284 680.716 898.875 685.859 897.117C691.068 895.294 696.862 894.383 703.242 894.383C710.924 894.383 717.695 895.685 723.555 898.289C729.479 900.893 734.102 904.832 737.422 910.105C740.807 915.314 742.5 921.857 742.5 929.734V978.953C742.5 982.469 742.793 986.212 743.379 990.184C744.03 994.155 744.974 997.573 746.211 1000.44V1002H727.363C726.452 999.917 725.736 997.15 725.215 993.699C724.694 990.184 724.434 986.928 724.434 983.934ZM727.559 937.938L727.754 950.633H709.492C704.349 950.633 699.759 951.056 695.723 951.902C691.686 952.684 688.301 953.888 685.566 955.516C682.832 957.143 680.749 959.194 679.316 961.668C677.884 964.077 677.168 966.909 677.168 970.164C677.168 973.484 677.917 976.512 679.414 979.246C680.911 981.98 683.158 984.161 686.152 985.789C689.212 987.352 692.956 988.133 697.383 988.133C702.917 988.133 707.799 986.961 712.031 984.617C716.263 982.273 719.616 979.409 722.09 976.023C724.629 972.638 725.996 969.35 726.191 966.16L733.906 974.852C733.451 977.586 732.214 980.613 730.195 983.934C728.177 987.254 725.475 990.444 722.09 993.504C718.77 996.499 714.798 999.005 710.176 1001.02C705.618 1002.98 700.475 1003.95 694.746 1003.95C687.585 1003.95 681.302 1002.55 675.898 999.754C670.56 996.954 666.393 993.211 663.398 988.523C660.469 983.771 659.004 978.465 659.004 972.605C659.004 966.941 660.111 961.961 662.324 957.664C664.538 953.302 667.728 949.689 671.895 946.824C676.061 943.895 681.074 941.681 686.934 940.184C692.793 938.686 699.336 937.938 706.562 937.938H727.559ZM788.887 917.332V1002H770.723V896.336H787.91L788.887 917.332ZM785.176 945.164L776.777 944.871C776.842 937.645 777.786 930.971 779.609 924.852C781.432 918.667 784.134 913.296 787.715 908.738C791.296 904.181 795.755 900.665 801.094 898.191C806.432 895.652 812.617 894.383 819.648 894.383C824.596 894.383 829.154 895.099 833.32 896.531C837.487 897.898 841.1 900.079 844.16 903.074C847.22 906.069 849.596 909.91 851.289 914.598C852.982 919.285 853.828 924.949 853.828 931.59V1002H835.762V932.469C835.762 926.935 834.818 922.508 832.93 919.188C831.107 915.867 828.503 913.458 825.117 911.961C821.732 910.398 817.76 909.617 813.203 909.617C807.865 909.617 803.405 910.561 799.824 912.449C796.243 914.337 793.379 916.941 791.23 920.262C789.082 923.582 787.52 927.391 786.543 931.688C785.632 935.919 785.176 940.411 785.176 945.164ZM853.633 935.203L841.523 938.914C841.589 933.12 842.533 927.553 844.355 922.215C846.243 916.876 848.945 912.124 852.461 907.957C856.042 903.79 860.436 900.503 865.645 898.094C870.853 895.62 876.81 894.383 883.516 894.383C889.18 894.383 894.193 895.132 898.555 896.629C902.982 898.126 906.693 900.438 909.688 903.562C912.747 906.622 915.059 910.561 916.621 915.379C918.184 920.197 918.965 925.926 918.965 932.566V1002H900.801V932.371C900.801 926.447 899.857 921.857 897.969 918.602C896.146 915.281 893.542 912.97 890.156 911.668C886.836 910.301 882.865 909.617 878.242 909.617C874.271 909.617 870.755 910.301 867.695 911.668C864.635 913.035 862.064 914.923 859.98 917.332C857.897 919.676 856.302 922.378 855.195 925.438C854.154 928.497 853.633 931.753 853.633 935.203ZM990.156 1003.95C982.799 1003.95 976.126 1002.72 970.137 1000.24C964.212 997.703 959.102 994.155 954.805 989.598C950.573 985.04 947.318 979.637 945.039 973.387C942.76 967.137 941.621 960.301 941.621 952.879V948.777C941.621 940.184 942.891 932.534 945.43 925.828C947.969 919.057 951.419 913.328 955.781 908.641C960.143 903.953 965.091 900.405 970.625 897.996C976.159 895.587 981.888 894.383 987.812 894.383C995.365 894.383 1001.88 895.685 1007.34 898.289C1012.88 900.893 1017.4 904.539 1020.92 909.227C1024.43 913.849 1027.04 919.318 1028.73 925.633C1030.42 931.883 1031.27 938.719 1031.27 946.141V954.246H952.363V939.5H1013.2V938.133C1012.94 933.445 1011.97 928.888 1010.27 924.461C1008.65 920.034 1006.04 916.388 1002.46 913.523C998.88 910.659 993.997 909.227 987.812 909.227C983.711 909.227 979.935 910.105 976.484 911.863C973.034 913.556 970.072 916.095 967.598 919.48C965.124 922.866 963.203 927 961.836 931.883C960.469 936.766 959.785 942.397 959.785 948.777V952.879C959.785 957.892 960.469 962.612 961.836 967.039C963.268 971.401 965.319 975.242 967.988 978.562C970.723 981.883 974.01 984.487 977.852 986.375C981.758 988.263 986.185 989.207 991.133 989.207C997.513 989.207 1002.92 987.905 1007.34 985.301C1011.77 982.697 1015.64 979.214 1018.96 974.852L1029.9 983.543C1027.62 986.993 1024.73 990.281 1021.21 993.406C1017.7 996.531 1013.37 999.07 1008.22 1001.02C1003.14 1002.98 997.122 1003.95 990.156 1003.95ZM1113.89 973.973C1113.89 971.368 1113.3 968.96 1112.13 966.746C1111.02 964.467 1108.71 962.417 1105.2 960.594C1101.74 958.706 1096.54 957.078 1089.57 955.711C1083.71 954.474 1078.4 953.009 1073.65 951.316C1068.96 949.624 1064.96 947.573 1061.64 945.164C1058.39 942.755 1055.88 939.923 1054.12 936.668C1052.36 933.413 1051.48 929.604 1051.48 925.242C1051.48 921.076 1052.4 917.137 1054.22 913.426C1056.11 909.715 1058.74 906.427 1062.13 903.562C1065.58 900.698 1069.71 898.452 1074.53 896.824C1079.35 895.197 1084.72 894.383 1090.64 894.383C1099.11 894.383 1106.33 895.88 1112.32 898.875C1118.31 901.87 1122.9 905.874 1126.09 910.887C1129.28 915.835 1130.88 921.336 1130.88 927.391H1112.81C1112.81 924.461 1111.93 921.629 1110.18 918.895C1108.48 916.095 1105.98 913.784 1102.66 911.961C1099.4 910.138 1095.4 909.227 1090.64 909.227C1085.63 909.227 1081.56 910.008 1078.44 911.57C1075.38 913.068 1073.13 914.988 1071.7 917.332C1070.33 919.676 1069.65 922.15 1069.65 924.754C1069.65 926.707 1069.97 928.465 1070.62 930.027C1071.34 931.525 1072.58 932.924 1074.34 934.227C1076.09 935.464 1078.57 936.635 1081.76 937.742C1084.95 938.849 1089.02 939.956 1093.96 941.062C1102.62 943.016 1109.75 945.359 1115.35 948.094C1120.95 950.828 1125.12 954.181 1127.85 958.152C1130.59 962.124 1131.95 966.941 1131.95 972.605C1131.95 977.228 1130.98 981.46 1129.02 985.301C1127.14 989.142 1124.37 992.462 1120.72 995.262C1117.14 997.996 1112.85 1000.14 1107.83 1001.71C1102.88 1003.2 1097.32 1003.95 1091.13 1003.95C1081.82 1003.95 1073.95 1002.29 1067.5 998.973C1061.05 995.652 1056.17 991.355 1052.85 986.082C1049.53 980.809 1047.87 975.242 1047.87 969.383H1066.04C1066.3 974.331 1067.73 978.27 1070.33 981.199C1072.94 984.064 1076.13 986.115 1079.9 987.352C1083.68 988.523 1087.42 989.109 1091.13 989.109C1096.08 989.109 1100.21 988.458 1103.54 987.156C1106.92 985.854 1109.49 984.064 1111.25 981.785C1113.01 979.507 1113.89 976.902 1113.89 973.973ZM594.16 1154.95V1170.28H517.207V1154.95H594.16ZM520.137 1093.81V1236H501.289V1093.81H520.137ZM610.566 1093.81V1236H591.816V1093.81H610.566ZM705.977 1211.59V1130.34H724.141V1236H706.855L705.977 1211.59ZM709.395 1189.32L716.914 1189.12C716.914 1196.16 716.165 1202.67 714.668 1208.66C713.236 1214.58 710.892 1219.72 707.637 1224.09C704.382 1228.45 700.117 1231.87 694.844 1234.34C689.57 1236.75 683.158 1237.95 675.605 1237.95C670.462 1237.95 665.742 1237.2 661.445 1235.71C657.214 1234.21 653.568 1231.9 650.508 1228.77C647.448 1225.65 645.072 1221.58 643.379 1216.57C641.751 1211.55 640.938 1205.53 640.938 1198.5V1130.34H659.004V1198.7C659.004 1203.45 659.525 1207.39 660.566 1210.51C661.673 1213.57 663.138 1216.01 664.961 1217.84C666.849 1219.59 668.932 1220.83 671.211 1221.55C673.555 1222.26 675.964 1222.62 678.438 1222.62C686.12 1222.62 692.207 1221.16 696.699 1218.23C701.191 1215.23 704.414 1211.23 706.367 1206.21C708.385 1201.14 709.395 1195.51 709.395 1189.32ZM751.582 1086H769.746V1215.49L768.184 1236H751.582V1086ZM841.133 1182.29V1184.34C841.133 1192.02 840.221 1199.15 838.398 1205.73C836.576 1212.24 833.906 1217.9 830.391 1222.72C826.875 1227.54 822.578 1231.28 817.5 1233.95C812.422 1236.62 806.595 1237.95 800.02 1237.95C793.314 1237.95 787.422 1236.81 782.344 1234.54C777.331 1232.19 773.099 1228.84 769.648 1224.48C766.198 1220.11 763.431 1214.84 761.348 1208.66C759.329 1202.47 757.93 1195.51 757.148 1187.76V1178.77C757.93 1170.96 759.329 1163.96 761.348 1157.78C763.431 1151.59 766.198 1146.32 769.648 1141.96C773.099 1137.53 777.331 1134.18 782.344 1131.9C787.357 1129.55 793.184 1128.38 799.824 1128.38C806.465 1128.38 812.357 1129.68 817.5 1132.29C822.643 1134.83 826.94 1138.47 830.391 1143.23C833.906 1147.98 836.576 1153.68 838.398 1160.32C840.221 1166.89 841.133 1174.22 841.133 1182.29ZM822.969 1184.34V1182.29C822.969 1177.02 822.48 1172.07 821.504 1167.45C820.527 1162.76 818.965 1158.66 816.816 1155.14C814.668 1151.56 811.836 1148.76 808.32 1146.74C804.805 1144.66 800.475 1143.62 795.332 1143.62C790.775 1143.62 786.803 1144.4 783.418 1145.96C780.098 1147.52 777.266 1149.64 774.922 1152.31C772.578 1154.91 770.658 1157.91 769.16 1161.29C767.728 1164.61 766.654 1168.06 765.938 1171.64V1195.18C766.979 1199.74 768.672 1204.13 771.016 1208.36C773.424 1212.53 776.615 1215.95 780.586 1218.62C784.622 1221.29 789.603 1222.62 795.527 1222.62C800.41 1222.62 804.577 1221.64 808.027 1219.69C811.543 1217.67 814.375 1214.91 816.523 1211.39C818.737 1207.88 820.365 1203.81 821.406 1199.18C822.448 1194.56 822.969 1189.61 822.969 1184.34Z" fill="#88FFC6"/>
</svg>
