<svg width="444" height="444" viewBox="0 0 444 444" fill="none" xmlns="http://www.w3.org/2000/svg">
<rect width="444" height="444" rx="30" fill="#2B4397"/>
<path d="M152.016 258.227V207.375H161.391C164.611 204.439 167.641 200.296 170.482 194.946C173.37 189.548 175.809 182.351 177.797 173.355C179.833 164.312 181.183 152.83 181.846 138.909L184.971 77.5455H271.334V207.375H288.096V257.943H271.334V223H168.777V258.227H152.016ZM182.414 207.375H254.573V93.1705H200.88L198.607 138.909C198.039 149.515 197.044 159.127 195.624 167.744C194.203 176.314 192.381 183.914 190.155 190.543C187.93 197.124 185.349 202.735 182.414 207.375ZM4.97674 390.614V365.188H9.66424C11.2741 363.72 12.7892 361.648 14.2097 358.973C15.6538 356.274 16.873 352.676 17.8674 348.178C18.8854 343.656 19.5601 337.915 19.8915 330.955L21.454 300.273H64.6358V365.188H73.0165V390.472H64.6358V373H13.3574V390.614H4.97674ZM20.1756 365.188H56.2552V308.085H29.4086L28.2722 330.955C27.9881 336.258 27.4909 341.063 26.7807 345.372C26.0705 349.657 25.159 353.457 24.0463 356.771C22.9337 360.062 21.6434 362.867 20.1756 365.188ZM115.018 361.636L134.052 318.455H142.006L118.427 373H111.608L88.4551 318.455H96.2676L115.018 361.636ZM93.5687 318.455V373H85.188V318.455H93.5687ZM136.466 373V318.455H144.847V373H136.466ZM168.569 360.642L194.847 318.455H204.506V373H196.126V330.812L169.989 373H160.188V318.455H168.569V360.642ZM212.434 326.267V318.455H256.752V326.267H238.855V373H230.474V326.267H212.434ZM268.977 393.455V318.455H277.074V327.119H278.068C278.684 326.172 279.536 324.965 280.625 323.497C281.738 322.006 283.324 320.68 285.383 319.52C287.467 318.336 290.284 317.744 293.835 317.744C298.428 317.744 302.476 318.893 305.98 321.189C309.484 323.485 312.218 326.741 314.183 330.955C316.148 335.169 317.131 340.14 317.131 345.869C317.131 351.646 316.148 356.653 314.183 360.891C312.218 365.105 309.496 368.372 306.015 370.692C302.535 372.988 298.523 374.136 293.977 374.136C290.473 374.136 287.668 373.556 285.561 372.396C283.454 371.213 281.832 369.875 280.696 368.384C279.559 366.868 278.684 365.614 278.068 364.619H277.358V393.455H268.977ZM277.216 345.727C277.216 349.847 277.819 353.481 279.027 356.629C280.234 359.754 281.998 362.205 284.318 363.98C286.638 365.732 289.479 366.608 292.841 366.608C296.345 366.608 299.268 365.685 301.612 363.838C303.979 361.968 305.755 359.458 306.939 356.31C308.146 353.137 308.75 349.61 308.75 345.727C308.75 341.892 308.158 338.436 306.974 335.358C305.814 332.257 304.05 329.806 301.683 328.007C299.339 326.184 296.392 325.273 292.841 325.273C289.432 325.273 286.567 326.137 284.247 327.865C281.927 329.57 280.175 331.961 278.991 335.038C277.808 338.092 277.216 341.655 277.216 345.727ZM338.295 360.642L364.574 318.455H374.233V373H365.852V330.812L339.716 373H329.915V318.455H338.295V360.642ZM397.963 360.642L424.242 318.455H433.901V373H425.52V330.812L399.384 373H389.583V318.455H397.963V360.642ZM418.702 300.273H426.514C426.514 304.108 425.189 307.245 422.537 309.683C419.886 312.122 416.287 313.341 411.742 313.341C407.267 313.341 403.704 312.122 401.053 309.683C398.425 307.245 397.111 304.108 397.111 300.273H404.923C404.923 302.119 405.432 303.741 406.45 305.138C407.492 306.535 409.256 307.233 411.742 307.233C414.227 307.233 416.003 306.535 417.068 305.138C418.157 303.741 418.702 302.119 418.702 300.273Z" fill="white"/>
<rect y="271" width="444" height="14" fill="#CF1C1C"/>
</svg>
