<svg width="502" height="502" viewBox="0 0 502 502" fill="none" xmlns="http://www.w3.org/2000/svg">
<rect y="318.074" width="367.28" height="367.28" rx="30" transform="rotate(-60 0 318.074)" fill="#C04D34"/>
<path d="M107.762 282V136.545H125.376V208.705H127.08L192.421 136.545H215.433L154.353 202.17L215.433 282H194.126L143.558 214.386L125.376 234.841V282H107.762ZM248.174 283.136C244.67 283.136 241.664 281.882 239.154 279.372C236.645 276.863 235.39 273.856 235.39 270.352C235.39 266.848 236.645 263.842 239.154 261.332C241.664 258.823 244.67 257.568 248.174 257.568C251.678 257.568 254.684 258.823 257.194 261.332C259.703 263.842 260.958 266.848 260.958 270.352C260.958 272.672 260.366 274.803 259.183 276.744C258.046 278.686 256.507 280.248 254.566 281.432C252.672 282.568 250.541 283.136 248.174 283.136ZM299.275 282H280.809L334.218 136.545H352.4L405.809 282H387.343L343.877 159.557H342.741L299.275 282ZM306.093 225.182H380.525V240.807H306.093V225.182Z" fill="white"/>
<rect x="88" y="289" width="325" height="8" fill="black"/>
<path d="M169.153 338.909C168.77 335.67 167.214 333.156 164.487 331.366C161.76 329.577 158.415 328.682 154.452 328.682C151.554 328.682 149.018 329.151 146.845 330.088C144.693 331.026 143.01 332.315 141.795 333.955C140.602 335.596 140.006 337.46 140.006 339.548C140.006 341.295 140.421 342.798 141.252 344.055C142.104 345.29 143.191 346.324 144.512 347.155C145.833 347.964 147.218 348.636 148.667 349.168C150.116 349.68 151.447 350.095 152.662 350.415L159.309 352.205C161.014 352.652 162.91 353.27 164.998 354.058C167.108 354.847 169.121 355.923 171.039 357.286C172.978 358.629 174.576 360.354 175.833 362.464C177.09 364.573 177.719 367.162 177.719 370.23C177.719 373.767 176.792 376.963 174.938 379.818C173.106 382.673 170.421 384.942 166.884 386.626C163.368 388.309 159.096 389.151 154.068 389.151C149.381 389.151 145.322 388.394 141.891 386.881C138.482 385.369 135.797 383.259 133.837 380.553C131.898 377.847 130.801 374.705 130.545 371.125H138.727C138.94 373.597 139.771 375.642 141.22 377.261C142.69 378.859 144.544 380.053 146.781 380.841C149.04 381.608 151.469 381.991 154.068 381.991C157.094 381.991 159.81 381.501 162.218 380.521C164.626 379.52 166.532 378.135 167.939 376.366C169.345 374.577 170.048 372.489 170.048 370.102C170.048 367.929 169.441 366.161 168.226 364.797C167.012 363.433 165.414 362.325 163.432 361.473C161.451 360.621 159.309 359.875 157.008 359.236L148.954 356.935C143.841 355.464 139.792 353.366 136.809 350.638C133.827 347.911 132.335 344.342 132.335 339.932C132.335 336.267 133.326 333.071 135.307 330.344C137.31 327.595 139.995 325.464 143.361 323.952C146.749 322.418 150.531 321.651 154.707 321.651C158.926 321.651 162.676 322.407 165.957 323.92C169.238 325.411 171.838 327.457 173.756 330.056C175.694 332.656 176.717 335.607 176.824 338.909H169.153ZM198.676 322.545V388H190.75V322.545H198.676ZM210.989 329.577V322.545H260.08V329.577H239.498V388H231.572V329.577H210.989ZM272.313 388V322.545H311.816V329.577H280.239V351.693H309.77V358.724H280.239V380.969H312.327V388H272.313ZM361.897 338.909C361.514 335.67 359.958 333.156 357.231 331.366C354.504 329.577 351.159 328.682 347.196 328.682C344.298 328.682 341.762 329.151 339.589 330.088C337.437 331.026 335.754 332.315 334.539 333.955C333.346 335.596 332.75 337.46 332.75 339.548C332.75 341.295 333.165 342.798 333.996 344.055C334.848 345.29 335.935 346.324 337.256 347.155C338.577 347.964 339.962 348.636 341.411 349.168C342.86 349.68 344.191 350.095 345.406 350.415L352.054 352.205C353.758 352.652 355.654 353.27 357.743 354.058C359.852 354.847 361.865 355.923 363.783 357.286C365.722 358.629 367.32 360.354 368.577 362.464C369.834 364.573 370.463 367.162 370.463 370.23C370.463 373.767 369.536 376.963 367.682 379.818C365.85 382.673 363.165 384.942 359.628 386.626C356.113 388.309 351.841 389.151 346.812 389.151C342.125 389.151 338.066 388.394 334.635 386.881C331.226 385.369 328.542 383.259 326.581 380.553C324.642 377.847 323.545 374.705 323.289 371.125H331.471C331.684 373.597 332.515 375.642 333.964 377.261C335.434 378.859 337.288 380.053 339.525 380.841C341.784 381.608 344.213 381.991 346.812 381.991C349.838 381.991 352.554 381.501 354.962 380.521C357.37 379.52 359.277 378.135 360.683 376.366C362.089 374.577 362.792 372.489 362.792 370.102C362.792 367.929 362.185 366.161 360.971 364.797C359.756 363.433 358.158 362.325 356.176 361.473C354.195 360.621 352.054 359.875 349.752 359.236L341.699 356.935C336.585 355.464 332.537 353.366 329.554 350.638C326.571 347.911 325.079 344.342 325.079 339.932C325.079 336.267 326.07 333.071 328.051 330.344C330.054 327.595 332.739 325.464 336.105 323.952C339.493 322.418 343.275 321.651 347.451 321.651C351.67 321.651 355.42 322.407 358.701 323.92C361.983 325.411 364.582 327.457 366.5 330.056C368.439 332.656 369.461 335.607 369.568 338.909H361.897Z" fill="black"/>
</svg>
